<svg height="11" viewBox="0 0 62 11" width="62" xmlns="http://www.w3.org/2000/svg"><path d="m135.584 18.2-4.242 9.8h-2.24l-4.228-9.8h2.45l2.982 7 3.024-7zm5.446 9.968c-1.017338 0-1.934329-.2193311-2.751-.658s-1.455998-1.0429961-1.918-1.813c-.462002-.7700038-.693-1.6356619-.693-2.597s.230998-1.8269962.693-2.597c.462002-.7700039 1.101329-1.3743311 1.918-1.813s1.733662-.658 2.751-.658 1.931996.2193311 2.744.658 1.451331 1.0429961 1.918 1.813c.466669.7700038.7 1.6356619.7 2.597s-.233331 1.8269962-.7 2.597c-.466669.7700039-1.105996 1.3743311-1.918 1.813s-1.726662.658-2.744.658zm0-1.932c.57867 0 1.101331-.1329987 1.568-.399s.832999-.6369976 1.099-1.113.399-1.0173303.399-1.624-.132999-1.1479976-.399-1.624-.632331-.8469987-1.099-1.113-.98933-.399-1.568-.399-1.101331.1329987-1.568.399-.832999.6369976-1.099 1.113-.399 1.0173303-.399 1.624.132999 1.1479976.399 1.624.632331.8469987 1.099 1.113.98933.399 1.568.399zm10.64-2.086-1.316 1.372v2.478h-2.254v-9.8h2.254v4.578l4.34-4.578h2.52l-4.06 4.368 4.298 5.432h-2.646zm9.8 4.018c-.774671 0-1.523663-.1049989-2.247-.315s-1.304331-.4829983-1.743-.819l.77-1.708c.420002.3080015.91933.5553324 1.498.742s1.15733.28 1.736.28c.644003 0 1.119998-.0956657 1.428-.287s.462-.4456651.462-.763c0-.2333345-.090999-.4269992-.273-.581s-.415332-.2776662-.7-.371c-.189779-.0622225-.424148-.1285926-.70311-.199111l-.45189-.108889c-.74667-.1773342-1.357998-.3546658-1.834-.532s-.884332-.461998-1.225-.854-.511-.9146634-.511-1.568c0-.5693362.153998-1.0849977.462-1.547s.77233-.828332 1.393-1.099 1.378996-.406 2.275-.406c.625336 0 1.236664.0746659 1.834.224s1.119998.3639986 1.568.644l-.7 1.722c-.905338-.5133359-1.810662-.77-2.716-.77-.63467 0-1.103665.1026656-1.407.308s-.455.4759983-.455.812.174998.5856658.525.749.88433.3243325 1.603.483c.74667.1773342 1.357998.3546658 1.834.532s.884332.4573314 1.225.84.511.9006634.511 1.554c0 .5600028-.156332 1.0709977-.469 1.533s-.781664.828332-1.407 1.099-1.385996.406-2.282.406zm6.664-.056c-.382669 0-.704665-.1306654-.966-.392s-.392-.587998-.392-.98c0-.4013353.130665-.7256654.392-.973s.583331-.371.966-.371.704665.1236654.966.371.392.5716647.392.973c0 .392002-.130665.7186654-.392.98s-.583331.392-.966.392zm12.334-10.08c1.017338 0 1.931996.2193311 2.744.658s1.451331 1.0429961 1.918 1.813c.466669.7700038.7 1.6356619.7 2.597s-.233331 1.8269962-.7 2.597c-.466669.7700039-1.105996 1.3743311-1.918 1.813s-1.726662.658-2.744.658-1.934329-.2193311-2.751-.658-1.455998-1.0429961-1.918-1.813c-.462002-.7700038-.693-1.6356619-.693-2.597s.230998-1.8269962.693-2.597c.462002-.7700039 1.101329-1.3743311 1.918-1.813s1.733662-.658 2.751-.658zm-7.07.168v9.8h-2.268v-9.8zm7.07 1.764c-.57867 0-1.101331.1329987-1.568.399s-.832999.6369976-1.099 1.113-.399 1.0173303-.399 1.624.132999 1.1479976.399 1.624.632331.8469987 1.099 1.113.98933.399 1.568.399 1.101331-.1329987 1.568-.399.832999-.6369976 1.099-1.113.399-1.0173303.399-1.624-.132999-1.1479976-.399-1.624-.632331-.8469987-1.099-1.113-.98933-.399-1.568-.399z" fill="#2196f3" transform="translate(-124 -18)"/></svg>